<?xml version="1.0" encoding="utf-8"?>
<!-- Generator: Adobe Illustrator 27.0.0, SVG Export Plug-In . SVG Version: 6.00 Build 0)  -->
<svg version="1.1" id="Шар_2_00000042728675730549592760000008654650983031360384_"
	 xmlns="http://www.w3.org/2000/svg" xmlns:xlink="http://www.w3.org/1999/xlink" x="0px" y="0px" viewBox="0 0 600 600"
	 style="enable-background:new 0 0 600 600;" xml:space="preserve">
<style type="text/css">
	.st0{display:none;}
	.st1{display:none;fill:none;stroke:#000000;stroke-miterlimit:10;}
	.st2{display:none;fill:none;stroke:#000000;stroke-width:4;stroke-miterlimit:10;}
	.st3{display:inline;fill:none;stroke:#000000;stroke-width:4;stroke-miterlimit:10;}
	.st4{fill:none;stroke:#000000;stroke-width:6;stroke-miterlimit:10;}
</style>
<rect class="st0" width="600" height="600"/>
<g>
	<path d="M218.4,550.7c-26.8-35.1-23.8-77.7-20.8-96.4c-14.9,20.1-4.6,59-4.5,59.4l4.9,17.6l-9.4-15.6
		c-11.9-19.8-14.4-43.6-7.3-68.8c2.7-9.4,6.2-17.3,9-22.8c-35.6,27.9-29.8,78.9-29.5,81.1l1.6,12.2l-6.3-10.6
		c-22.1-37.4-11.9-71.1,0.6-92.9c8.4-14.6,18.8-25.8,25.1-31.9c-32.3,11.6-47.8,67.5-47.9,68.1l-2.8,10.7l-2-10.9
		c-8.8-47.8,3.8-80.4,16-99.4c7.3-11.3,15.1-19.2,21-24.2c-27.4,8.3-42.6,50.2-42.8,50.7l-4,11.1l-0.9-11.7
		c-2.9-37.9,11.4-60.2,23.9-72.2c7-6.7,14.2-11,19.4-13.6c-17.6-5-24-22.7-24-22.8l-2.2-6.3l5.8,3.4c5.6,3.2,10.8,4.9,15.5,4.9
		c1.9,0,3.7-0.3,5.5-0.8c3.8-1.2,6.5-3.4,8.4-5.4c-0.6,0-1.1,0-1.7,0c-23.9,0-31.1-27.8-31.4-29l-2.5-10.5l6.9,8.3
		c4.8,5.9,10.9,8.8,17.9,8.8c6.2,0,11.4-2.4,13-3.3c3.3-7,5.9-15.3,7.7-24.7c-6.5-7-19.9-18.9-37.6-20.4c-1.3-0.1-2.7-0.2-4-0.2
		c-15.7,0-31.6,8.2-47.4,24.3c-18.6,19-18,59.2-17.7,85.7c0,3.3,0.1,6.7,0.1,9.8v6.8l-4.4-5.1c-0.3-0.4-29.8-35.7-27.4-94.4
		c0.8-19.1,13.9-49.3,41.3-73.6c17.3-15.4,46.8-33.7,88.5-33.7c1.1,0,2.2,0,3.4,0c-0.2-0.8-0.4-1.5-0.6-2.3
		c-6.4-22.8-4.3-37.3-4.3-37.4l1.8-12.7l3.1,12.5c0.5,2,5,19.3,12,31.4c1.9,3.3,4.1,6.8,6.7,10.6c25,5.5,48.9,23.8,69.1,52.9
		c12.3,17.7,20.3,35.2,24.1,44.2c3.2,0.2,5.8,0.6,7.8,1c2.7,0.6,7.9,0.9,15.4,1c5.5-9.2,14.6-23.1,26.9-37.3
		c10.9-12.6,22.5-23.3,34.3-31.6c4.9-13.8,12.1-24.6,17.9-33.4l0.7-1.1c0.6-0.9,1.2-1.8,1.7-2.6c8.9-13.7,15.3-36.3,16-38.9l6.4-24
		l-1.5,24.8c0,0.2-1.1,18.4-6.6,41.3c-1.3,5.3-2.7,11.3-4.1,17.6c6.7-2.4,13.5-4,20.3-4.9c6.8-0.9,13.5-1.3,19.9-1.3
		c27.7,0,51.6,8.3,70.9,24.5c31.3,26.4,41,65.7,41.8,84.7c2.4,58.9-19.4,84.1-20.3,85.1l-4.4,4.9v-6.6c0-3.7,0.1-8,0.3-12.6l0-0.9
		c0.9-28.1,2.2-70.5-19.4-83.2c-16.2-9.5-31.8-14.3-46.4-14.3c-11.6,0-22.7,3-33.1,9c-12.6,7.2-21,17.1-24.8,22.2
		c6.5-2.7,18.9-8.8,24.2-17.3l3-4.9l1.5,5.5c0.2,0.7,4.2,17-17.9,35.1c9.5,0.4,22.6,5,33.4,23.7l5.7,9.9l-9.3-6.7
		c-0.8-0.5-8-5.4-18.7-5.4c-4.8,0-9.6,1-14.3,3c4.9,2.1,12,6.1,19.7,13.1c12.1,11.2,27.9,32.6,34.7,71.6l3.3,19.1l-8-17.6
		c-0.1-0.3-14.1-30.1-38.4-43.7c5.4,5.3,12.3,13.3,18.3,23.9c11.6,20.8,21.4,55.9,1.9,104.6l-6.1,15.3l1.3-16.4
		c0-0.5,3.5-51.9-27.4-72.6c4.9,8.4,11.1,21.3,14.8,38c5.7,26,5.7,66.3-26.4,110.7l-8.3,11.5l3.9-13.6c0.2-0.6,16.1-58.1,3.5-90
		c0.6,2.6,1.1,5.2,1.5,7.8c2.1,14.8,1.3,38.1-14.8,65l-11.2,18.7l6.6-20.7c0.4-1.2,8.5-27.5,1.4-49.1c0.7,7.5,0.7,15.1-0.1,22.8
		c-2.1,20.2-10.8,49.6-40.8,75l-15,12.7l11.3-16.1c1.2-1.7,29-42.3,20.8-68.1c-2.6-8.2-8.7-14.2-18.3-17.7l-1.2-0.1l0.8-1
		c0.8-1,1.7-2,2.5-3.1l0.2-0.3l0.3,0.1c10.5,4.1,17.4,11,20.4,20.5c5.4,17.1-2.6,38.8-11.2,55.2c17.8-20.9,23.5-42.7,25-57.7
		c2.1-19.8-2-34.8-2.5-36.4l-3.7-11.9l8,9.6c11.4,13.7,12.2,32.8,10.5,47.8c15.5-40-2.1-68.5-2.3-68.8l-7.4-11.6l11,8.3
		c25.2,19,17.7,71.8,12.4,96.6c23.3-38.4,22.6-72.7,17.8-94.8c-5.9-27.1-19.2-44.3-19.4-44.4l-5.9-7.5l8.8,3.6
		c18.1,7.4,30.6,24,36.1,48c1.4,6.2,2.4,12.8,2.8,19.5c12.2-40.1,3.4-69.2-6.3-86.7c-12-21.6-28.6-32.2-28.7-32.3l-12.3-7.8
		l14.2,3.2c22.8,5.2,39.1,24.7,47.6,37.5c-7.6-27.9-20.1-44-29.4-52.6c-12.3-11.4-23.3-14.2-23.4-14.2l-6.1-1.5l5.4-3.1
		c7.1-4.1,14.5-6.2,21.9-6.2c4.4,0,8.8,0.7,13,2.1c-9.1-11.4-18.8-13.9-25.5-13.9c-3.9,0-6.5,0.9-6.8,1l-21.2,8l18.9-12.4
		c17.7-11.6,22.4-22.6,23.5-28.9c-10,9.8-26,15.2-26.7,15.4L402,242l-0.9-2.1c-16.2-36.6-10.8-77.2-5.4-104.5c0.3-1.6,0.6-3.2,1-4.8
		c1.5-7.2,3.2-14.2,4.6-20.3l0.2-0.9c1.3-5.3,2.4-10.7,3.4-16.3c-2.8,6.8-5.7,12.5-8.7,17c-0.6,1-1.3,2-1.9,3l-0.7,1
		c-4.8,7.2-10.7,16.2-15.2,27c-0.8,1.8-1.5,3.7-2.2,5.7l-0.1,0.2c-0.1,0.2-0.1,0.3-0.2,0.5l0,0c-6.8,19.1-22.1,46.7-30.6,61.4
		c-3.3,5.7-9.4,9.2-16,9.2c-0.1,0-0.3,0-0.4,0c-0.6,0-6.6,0.2-13.6,0.2c-0.7,0-1.5,0-2.3,0c-1.5,0-3.1,0-4.6-0.1
		c-6.8-0.1-11.6-0.5-14.4-1.1c-1.4-0.3-3.3-0.6-5.5-0.8c-1.4-0.1-2.9-0.2-4.4-0.3c-3.5-0.2-7.6-0.3-12.3-0.3
		c-8.8,0-16.8,0.3-17.2,0.4l-0.2,0c-4.6-0.1-8.9-2.3-11.7-5.8c-8.1-10.3-27.5-36.3-31.8-56.8c-1.9-9.1-8.7-18.8-15.8-29.1
		c-1.4-2-2.7-3.9-4.1-5.9l-0.2-0.2c-1-1.4-1.9-2.9-2.9-4.3c-1.8-2.8-3.4-5.3-4.9-7.9c-2.9-5-5.4-10.8-7.2-15.7
		c0.7,5.9,1.9,12,3.7,18.1c0.4,1.4,0.8,2.8,1.1,4.2c0.4,1.3,0.7,2.7,1,4.1c7.5,31.6,9,67.1,4,94.9c-0.3,1.7-0.6,3.5-1,5.1
		c-1.9,9-4.6,17-7.8,23.8l-0.3,0.7l-0.7,0.4c-0.3,0.2-7.4,4.2-16.4,4.2c-5,0-9.6-1.2-13.7-3.7c3.9,7.7,11,16.1,23,16.1
		c2.1,0,4.3-0.3,6.6-0.8l5-1.1l-2.2,4.7c-0.5,1-4.8,9.4-14.5,12.4c-2.2,0.7-4.6,1-7,1c-3.6,0-7.3-0.8-11.2-2.3
		c3.8,5.9,11.8,14.5,25.7,14.5h18.6l-18,4.9c-1.4,0.4-14.2,4.4-26.3,16.1c-14.7,14.2-22.3,33.3-22.6,56.9c7.2-15,25-44.9,52.4-44.9
		h9.1l-7.8,4.6c-0.2,0.1-14.9,8.9-27.6,28.8c-10.5,16.5-21.9,44.5-16.8,85.2c7-19.7,25.3-60.7,58.1-63.5l8.4-0.7l-6.6,5.2
		c-0.8,0.6-18.5,14.8-31.2,37c-15.1,26.3-17,52.5-5.8,77.6c0-6,0.5-14.4,2.4-23.6c5.2-25.5,18.7-45.1,39-56.7l9.5-5.4l-6.2,9
		c-0.3,0.4-25.3,37.3-15.2,76.3c-1.4-17.2,0.6-38,15.4-49.1l5.8-4.4l-1.9,7c-0.1,0.4-11.4,42.7,7.4,82.5
		c-4.4-17.8-6.9-40.7,2.7-57.5c5.8-10.1,15.3-16.7,28.3-19.6l0.3-0.1l2.9,4.5l-0.7,0.1c-12.3,2.4-21.3,8.3-26.5,17.5
		c-15.4,26.8,3.9,73,4.1,73.4l7.6,18L218.4,550.7z M465,198.8c15.7,0,32.1,5,48.9,14.9c24.2,14.2,22.8,58.4,21.8,87.7
		c0,0-0.1,4-0.1,4.8c6.6-11.5,16.2-35.4,14.5-74.8c-0.8-18.2-10-55.8-40-81.1c-18.4-15.5-41.1-23.3-67.7-23.3
		c-6.2,0-12.6,0.4-19.2,1.3c-7.4,1-14.8,2.9-22.1,5.8c-5.2,25.6-10.6,63.4,2.1,97.7c4.3-5.7,12.9-15.7,26.1-23.3
		C440.3,202,452.3,198.8,465,198.8z M172.1,117.3c-40.2,0-68.5,17.6-85.2,32.5c-26.2,23.3-39,52.7-39.7,70.1
		c-1.8,42.7,13.9,72.6,21.7,84.7l0-1.8c-0.4-27.5-1-68.9,19.1-89.4c16.7-17.1,33.9-25.8,50.9-25.8c1.5,0,3,0.1,4.5,0.2
		c17,1.5,30,11.1,38.2,19.2c4-26.7,2.2-60.1-4.9-89.7C175.1,117.3,173.6,117.3,172.1,117.3z M368.3,153.3
		c-24.8,19.7-43,45.7-51.9,60.1c6.6,0,12.2-0.2,12.4-0.2l0.5,0c4.8,0,9.3-2.6,11.7-6.7C348,194.2,360.7,171.3,368.3,153.3z
		 M199.2,121.7c7.5,10.7,14.5,20.9,16.6,30.9c4.1,19.4,23,44.7,30.9,54.7c1.9,2.4,4.8,3.8,7.8,4c2.6-0.1,9.5-0.4,17.3-0.4
		c3.6,0,6.9,0.1,9.9,0.2c-3.7-8.7-11.4-24.9-22.7-41.1c-12.6-18.1-33.2-41.2-60.6-49.4L199.2,121.7z"/>
	<path d="M413.7,49.4l-1.2,19.8c0,0.2-1.2,18.5-6.6,41.3c-1.4,5.7-2.8,11.9-4.3,18.5c6.7-2.5,13.7-4.3,21-5.2
		c6.8-0.9,13.4-1.3,19.8-1.3c27.6,0,51.3,8.2,70.5,24.4c31.2,26.3,40.8,65.4,41.6,84.3c2.4,58.6-19.2,83.7-20.2,84.7l-3.5,3.9v-5.3
		c0-3.9,0.1-8.5,0.3-13.5c0.9-28.2,2.3-70.8-19.6-83.6c-16.3-9.6-31.9-14.4-46.6-14.4c-11.7,0-22.8,3-33.4,9
		c-13.9,7.9-22.7,19.1-26,23.8c6.1-2.4,20.2-8.8,26.1-18.1l2.4-3.9l1.2,4.4c0.2,0.8,4.3,17.2-18.8,35.4c8.8,0,22.9,3.7,34.4,23.5
		l4.6,8l-7.5-5.3c-0.5-0.3-7.9-5.4-19-5.4c-4.7,0-9.9,0.9-15.6,3.5c4.7,1.9,12.3,5.9,20.6,13.5c12.1,11.1,27.8,32.5,34.5,71.3
		l2.6,15.2l-6.4-14.1c-0.2-0.4-15.2-32.8-41.8-45.6c6.1,5.6,14,14.2,20.7,26.3c11.6,20.7,21.3,55.6,1.9,104.1l-4.9,12.2l1-13.1
		c0-0.6,3.9-54-29.4-74.2c4.6,7.5,11.8,21.3,15.8,39.6c5.6,25.9,5.7,66-26.3,110.3l-6.6,9.2l3.1-10.9c0.2-0.7,18.1-65.2,0.9-95.8
		c1.2,3.8,2.4,8.3,3.1,13.6c2.1,14.7,1.3,37.9-14.7,64.7l-8.9,14.9l5.3-16.6c0.1-0.4,9.6-30.8,0-53.2c0.9,6.7,1.5,15.9,0.4,26.7
		c-2.1,20.1-10.8,49.4-40.6,74.7l-12,10.2l9-12.8c0.3-0.4,29.2-42,20.9-68.5c-2.6-8.4-8.9-14.5-18.6-18l-0.3,0l0.2-0.2
		c0.8-1,1.7-2.1,2.5-3.1c10.4,4.1,17.1,10.9,20.1,20.2c5.9,18.8-4.9,43.6-13.2,58.6c19.8-21.6,26.3-44.6,28-61.2
		c2.2-21-2.5-36.5-2.5-36.6l-3-9.5l6.4,7.6c12.5,15,12.1,36.7,9.9,51.2c18.2-42.1-0.6-72.5-0.9-72.8l-5.9-9.3l8.8,6.6
		c25.9,19.5,16.9,75.1,11.6,98.9c24.8-39.3,24.4-74.4,19.4-97.6c-5.9-27.2-19.3-44.5-19.5-44.7l-4.7-6l7,2.9
		c18,7.3,30.3,23.8,35.8,47.7c1.9,8.3,2.7,16.1,2.9,22.1c13.4-41.3,4.7-71.3-5.5-89.7c-12-21.7-28.8-32.4-28.9-32.5l-9.9-6.2
		l11.4,2.6c23.9,5.5,40.5,26.4,49,39.9c-7.4-29.4-20.2-46.5-30.4-55.9c-12.4-11.6-23.5-14.3-23.6-14.3l-4.9-1.2l4.3-2.5
		c7.9-4.6,15.3-6.1,21.7-6.1c5.8,0,10.8,1.3,14.4,2.7c-9.6-12.9-20.2-15.4-26.9-15.4c-4.2,0-6.9,1-7,1l-16.9,6.4l15.1-9.9
		c19.1-12.5,23.3-24.3,24-30.8c-9.7,10.4-26.8,16.1-27.6,16.4l-1.7,0.6l-0.7-1.7c-15.3-34.6-11.6-72.9-5.4-104.2
		c0.3-1.6,0.6-3.2,1-4.8c1.6-7.6,3.3-14.7,4.8-21.2c1.8-7.6,3.2-14.8,4.1-20.9c-2.7,7.1-6.2,14.9-10.3,21.2
		c-0.8,1.2-1.6,2.5-2.5,3.8c-4.9,7.4-10.8,16.4-15.4,27.3c-0.8,1.9-1.5,3.8-2.2,5.8c-0.1,0.2-0.2,0.5-0.3,0.7v0
		c-6.8,19-22,46.5-30.5,61.3c-3.2,5.6-9.1,9-15.5,9c-0.1,0-0.3,0-0.4,0c-0.8,0-6.7,0.2-13.6,0.2c-0.7,0-1.5,0-2.3,0
		c-1.5,0-3.1,0-4.6,0c-5.7-0.1-11.1-0.4-14.3-1.1c-1.5-0.3-3.4-0.6-5.5-0.8c-1.4-0.1-2.9-0.2-4.4-0.3c-3.9-0.2-8.3-0.3-12.3-0.3
		c-9.1,0-17.1,0.4-17.2,0.4h-0.1c-4.4-0.1-8.6-2.2-11.3-5.6c-8.1-10.2-27.4-36.2-31.7-56.6c-1.9-9.2-8.7-19-15.9-29.3
		c-1.4-1.9-2.7-3.9-4.1-5.9c-1-1.5-2.1-3-3.1-4.6c-1.7-2.6-3.3-5.2-4.8-7.8c-3.5-6.1-6.4-13.3-8.5-19.4c0.5,5.9,1.6,13.5,4.1,22.3
		c0.4,1.4,0.8,2.8,1.1,4.2c0.4,1.3,0.7,2.7,1,4.1c6.8,28.8,9.3,65,4,94.7c-0.3,1.7-0.6,3.4-1,5.1c-1.9,8.7-4.4,16.7-7.8,23.7
		l-0.3,0.5l-0.5,0.3c-0.1,0.1-7.2,4.2-16.1,4.2c-4.7,0-9.9-1.1-14.9-4.6c3.5,7.5,10.8,18,24.3,18c2.1,0,4.3-0.2,6.7-0.8l4-0.9
		l-1.8,3.7c-0.2,0.4-4.4,9.1-14.2,12.1c-2.2,0.7-4.5,1-6.9,1c-3.9,0-8.1-0.9-12.4-2.8c3.7,6.3,11.9,16,27,16h14.9l-14.4,3.9
		c-0.1,0-13.8,3.9-26.5,16.2c-15.3,14.8-22.9,34.8-22.8,59.5c7.1-15.5,24.9-46.7,52.9-46.7h7.2l-6.2,3.7c-0.2,0.1-15.1,9.1-27.7,29
		c-11,17.2-22.3,46-16.6,87.6c6.3-18.6,24.7-62.3,58.4-65.2l6.7-0.6l-5.3,4.1c-0.2,0.1-18.4,14.5-31.3,37.1
		c-15.6,27.3-17.2,54.2-4.8,80.2c-0.1-6.4,0.3-15.6,2.4-25.8c5.2-25.4,18.6-44.9,38.8-56.3l7.6-4.3l-5,7.2
		c-0.3,0.5-27.6,40.9-13.8,81.9c-2-16.5-1.9-41.5,14.7-54l4.7-3.5l-1.5,5.6c-0.1,0.5-12.1,46.2,9.6,87.1
		c-4.7-16.7-9.3-43.2,1.4-61.9c5.7-10,15.1-16.5,28-19.3l2.3,3.6c-12.5,2.4-21.5,8.4-26.9,17.7c-15.4,26.9,3.9,73.4,4.1,73.9
		l6.1,14.4l-9.5-12.4c-27.9-36.5-23.3-81.5-20.4-97.9c-16.9,19.8-5.9,60.9-5.8,61.4l3.9,14.1l-7.5-12.5
		c-11.9-19.7-14.3-43.3-7.2-68.4c3-10.4,7-19,10-24.7c-38.4,28.2-31.6,82.3-31.5,82.9l1.3,9.8l-5-8.5c-22-37.1-11.8-70.7,0.6-92.4
		c8.9-15.6,20.1-27.2,26.7-33.3c-34.3,10-50.2,68.5-50.4,69.1l-2.3,8.6l-1.6-8.7c-8.8-47.6,3.8-80.1,15.9-99.1
		c8.1-12.6,16.9-20.9,22.6-25.5c-29,6.7-45.1,51.1-45.3,51.6l-3.2,8.9l-0.7-9.4c-2.9-37.7,11.3-59.9,23.8-71.8
		c7.4-7.1,15-11.5,20.4-14.1c-18.3-4.4-24.9-22.6-25-22.9l-1.8-5.1l4.7,2.7c5.7,3.3,11,4.9,15.8,4.9c2,0,3.8-0.3,5.6-0.8
		c4.4-1.4,7.5-4.2,9.4-6.5c-1,0.1-2,0.1-2.9,0.1c-23.7,0-30.8-28.3-30.9-28.6l-2-8.4l5.5,6.6c5.8,7,12.5,9,18.2,9
		c6.4,0,11.8-2.5,13.4-3.4c3.5-7.4,6.1-16,7.8-25.2c-6.7-7.3-20.2-19.2-38.1-20.8c-1.3-0.1-2.7-0.2-4-0.2
		c-15.8,0-31.9,8.2-47.7,24.4C72.5,235.7,73,276,73.4,302.7c0,3.5,0.1,6.8,0.1,9.7v5.4l-3.5-4.1c-0.3-0.3-29.7-35.5-27.3-94.1
		c0.8-19,13.8-49,41.2-73.3c17.7-15.7,46.9-33.6,88.2-33.6c1.3,0,2.7,0,4,0.1c-0.3-1-0.5-2-0.8-2.9C169,87.6,171,73.3,171,72.7
		l1.4-10.2l2.5,10c0,0.2,4.7,18.8,12,31.5c2.1,3.7,4.5,7.3,6.8,10.8c25,5.5,48.7,23.5,68.9,52.7c12.4,17.9,20.6,35.7,24.2,44.4
		c3.1,0.2,5.8,0.5,8,1c3.3,0.7,9.6,1,15.8,1c5.2-8.6,14.4-22.9,27-37.4c9-10.4,20.6-22,34.3-31.7v0c4.9-13.8,12.1-24.6,17.9-33.4
		c0.9-1.3,1.7-2.5,2.5-3.8c9.5-14.6,16-38.9,16.1-39.1L413.7,49.4 M69.4,306.3c0-1.1,0-2.3-0.1-3.5c-0.4-27.4-1-68.7,19-89
		c16.7-17,33.6-25.6,50.6-25.6c1.5,0,2.9,0.1,4.4,0.2c17.6,1.6,30.9,12,38.5,19.8c4.5-28.9,1.9-63.6-4.8-91.2
		c-1.7-0.1-3.4-0.1-5-0.1c-40,0-68.3,17.3-85.5,32.6c-26.3,23.4-39.1,52.9-39.8,70.5C44.8,264.4,61.8,294.9,69.4,306.3 M254.5,211.8
		c1,0,8.6-0.4,17.3-0.4c3.5,0,7.2,0.1,10.7,0.2c-3.8-9-11.6-25.4-23-41.9c-13.4-19.3-34.4-42.2-62.2-49.9c0.5,0.8,1,1.5,1.6,2.2
		c7.4,10.7,14.4,20.8,16.6,30.7c4.1,19.5,23,44.9,31,54.9C248.3,210.2,251.3,211.7,254.5,211.8 M403,232.7
		c3.9-5.3,12.7-16,26.5-23.9c8.9-5.1,20.8-9.5,35.5-9.5c13.8,0,30.1,3.9,48.7,14.8c23.9,14.1,22.5,58.1,21.6,87.2
		c-0.1,2.3-0.2,4.6-0.2,6.8c6-10,17.3-34.5,15.6-76.7c-0.8-18.3-10.1-56.1-40.2-81.4c-18.5-15.6-41.3-23.5-68-23.5
		c-6.2,0-12.6,0.4-19.2,1.3c-7.8,1-15.3,3-22.5,5.9C394.6,163.2,390.4,199.5,403,232.7 M315.5,213.9c7.1,0,13.2-0.2,13.3-0.2h0.1
		c0.1,0,0.3,0,0.4,0c5,0,9.6-2.7,12.1-7c7.6-13.3,20.7-36.8,28.1-55C343.3,171.9,324.4,199.3,315.5,213.9 M415.2,39.5l-2.6,9.6
		l-5.1,19.2l0,0.1c-0.7,2.5-7.1,25.1-16,38.7c-0.5,0.8-1.1,1.7-1.6,2.5l-0.8,1.2c-5.8,8.7-13,19.6-17.9,33.3
		c-11.8,8.4-23.3,19-34.2,31.6c-12.2,14.1-21.3,27.9-26.8,37.1c-7.3-0.1-12.3-0.4-15-1c-1.9-0.4-4.5-0.7-7.5-1
		c-3.8-9.1-11.9-26.5-24-44c-20.2-29.1-44.1-47.4-69.2-53c-2.6-3.8-4.7-7.2-6.6-10.4c-6.9-12-11.4-29.3-11.9-31.2l-2.5-10l-1.2-5
		l-0.7,5.1L170,72.6c0,0.1-2.1,14.7,4.3,37.6c0.2,0.5,0.3,1.1,0.5,1.6c-0.9,0-1.8,0-2.7,0c-41.9,0-71.5,18.4-88.9,33.8
		c-27.6,24.5-40.7,54.8-41.5,74c-2.4,58.9,27.2,94.4,27.5,94.8l3.5,4.1l1.8,2.1v-2.7v-5.4c0-3.1,0-6.5-0.1-9.7
		c-0.4-26.5-0.9-66.6,17.5-85.4c15.7-16,31.5-24.1,47-24.1c1.3,0,2.6,0.1,3.9,0.2c17.3,1.5,30.5,13.1,37.1,20.1
		c-1.8,9.2-4.3,17.3-7.5,24.2c-1.8,0.9-6.8,3.1-12.6,3.1c-6.8,0-12.7-2.9-17.5-8.7l-5.5-6.6l-2.7-3.3l1,4.2l2,8.4
		c0.3,1.2,7.6,29.4,31.8,29.4c0.2,0,0.3,0,0.5,0c-1.8,1.7-4.2,3.4-7.3,4.4c-1.7,0.5-3.5,0.8-5.3,0.8c-4.6,0-9.8-1.6-15.3-4.8
		l-4.7-2.7l-2.3-1.3l0.9,2.5l1.8,5.1c0.1,0.2,6.2,17.3,23.2,22.8c-5.1,2.6-11.8,6.8-18.4,13.1c-12.6,12.1-27,34.5-24.1,72.6l0.7,9.4
		l0.4,4.7l1.6-4.4l3.2-8.9c0.1-0.4,14.3-39.7,40-49.5c-5.6,5-12.6,12.4-19.1,22.6c-12.2,19.1-24.9,51.9-16.1,99.8l1.6,8.7l0.8,4.4
		l1.1-4.3l2.3-8.6c0.2-0.6,4.1-15.1,12.3-30.8c6.8-13.1,17.9-29.4,33-36c-6.4,6.4-15.8,16.9-23.4,30.3
		c-12.5,21.9-22.8,55.8-0.6,93.4l5,8.5l2.5,4.2l-0.7-4.9l-1.3-9.8c-0.3-2.1-5.9-51.1,27.5-79.2c-2.6,5.3-5.6,12.5-8,20.8
		c-7.2,25.3-4.7,49.2,7.3,69.2l7.5,12.5l3.8,6.2l-1.9-7l-3.9-14.1c-0.1-0.4-10-36.8,3.1-57.2c-2.9,19.7-4.7,60.7,21.2,94.6l9.5,12.4
		l4.7,6.2l-3-7.2l-6.1-14.4c-0.2-0.5-19.3-46.6-4.1-73c5.2-9,14-14.8,26.2-17.2l1.4-0.3l-0.8-1.2l-2.3-3.6l-0.4-0.6l-0.7,0.2
		c-13.2,2.9-22.8,9.6-28.7,19.8c-8.8,15.4-7.6,35.8-4,52.7c-15.7-38.1-5.4-76.9-5.3-77.3l1.5-5.6l0.8-2.8l-2.3,1.7l-4.7,3.5
		c-13.1,9.9-16.3,27.3-15.9,43.1c-6.1-36.4,16.2-69.3,16.5-69.7l5-7.2l2.5-3.6l-3.8,2.2l-7.6,4.3c-20.4,11.6-34,31.3-39.2,57
		c-1.7,8.1-2.3,15.6-2.4,21.4c-10.1-24.4-7.9-49.6,6.7-75c12.7-22.2,30.3-36.3,31.1-36.9l5.3-4.1l2.6-2.1l-3.3,0.3l-6.7,0.6
		c-32,2.7-50.3,41.4-57.8,61.8c-4.4-39.4,6.7-66.6,17-82.8c12.5-19.6,27.2-28.6,27.4-28.7l6.2-3.7l3.1-1.9h-3.6h-7.2
		c-12.5,0-24.2,6-35,17.9c-7.4,8.2-13,17.7-16.8,25.3c0.8-22.4,8.3-40.6,22.4-54.3c12.1-11.6,24.7-15.6,26.1-16l14.4-3.9l7.2-2h-7.5
		h-14.9c-12.7,0-20.4-7.3-24.5-13c3.4,1.2,6.8,1.8,9.9,1.8c2.5,0,4.9-0.4,7.2-1.1c9.9-3.1,14.4-11.7,14.8-12.7l1.8-3.7l0.9-1.9
		l-2,0.5l-4,0.9c-2.2,0.5-4.4,0.8-6.5,0.8c-11,0-17.8-7.2-21.8-14.3c3.8,2,8,2.9,12.5,2.9c9.1,0,16.3-4.1,16.6-4.3l0.5-0.3l0.3-0.2
		l0.1-0.3l0.3-0.5c3.3-6.8,5.9-14.9,7.9-23.9c0.4-1.7,0.7-3.4,1-5.2c4.9-27.9,3.4-63.4-4.1-95.1c-0.3-1.5-0.7-2.8-1-4.1
		c-0.4-1.5-0.8-2.9-1.1-4.2c-1.3-4.7-2.3-9.3-3.1-13.8c1.8,4.4,3.7,8.4,5.6,11.7c1.5,2.5,3.1,5.1,4.9,7.9c0.9,1.5,1.9,2.9,2.9,4.3
		l0.2,0.3c1.4,2,2.7,4,4.1,5.9l0,0c7.1,10.2,13.8,19.9,15.7,28.9c4.4,20.6,23.8,46.7,31.9,57c2.9,3.7,7.3,5.9,12.1,6l0.2,0h0l0,0
		c0.5,0,8.4-0.4,17.1-0.4c4.7,0,8.8,0.1,12.3,0.3c1.5,0.1,3,0.2,4.4,0.3c2.2,0.2,4,0.4,5.4,0.7c2.8,0.6,7.7,1,14.5,1.1
		c1.7,0,3.3,0.1,4.6,0.1c0.8,0,1.5,0,2.3,0c6.8,0,12.8-0.2,13.6-0.2c0.1,0,0.3,0,0.4,0c6.8,0,13-3.6,16.4-9.5
		c8.5-14.8,23.8-42.4,30.6-61.5l0-0.1c0.1-0.1,0.1-0.3,0.2-0.4l0.1-0.2c0.7-2,1.5-3.9,2.2-5.7c4.5-10.7,10.4-19.7,15.2-26.9l0.1-0.2
		l0.6-0.8c0.7-1,1.3-2,1.9-3c2.3-3.6,4.7-8,7-13.1c-0.8,4.1-1.6,8.1-2.6,12l-0.2,0.9c-1.5,6.1-3.1,13.1-4.6,20.3
		c-0.3,1.5-0.7,3.2-1,4.8c-5.4,27.4-10.8,68,5.5,104.8l0.7,1.7l0.4,0.8l0.9-0.3l1.7-0.6c0.7-0.2,15.6-5.2,25.7-14.4
		c-1.6,6.4-6.8,16.4-23,27l-15.1,9.9l-7.6,5l8.5-3.2l16.9-6.4c0.3-0.1,2.8-0.9,6.6-0.9c6.3,0,15.4,2.2,24,12.4
		c-3.8-1.1-7.6-1.7-11.5-1.7c-7.5,0-15,2.1-22.2,6.2l-4.3,2.5l-2.2,1.3l2.4,0.6l4.9,1.2l0,0l0,0c0.1,0,11,2.8,23.1,14.1
		c9,8.3,20.9,23.5,28.5,49.5c-8.9-12.8-24.7-30.3-46.2-35.2l-11.4-2.6l-5.7-1.3l4.9,3.1l9.9,6.2c0.2,0.1,16.7,10.8,28.6,32.1
		c9.4,17,18,45,7,83.7c-0.5-5.8-1.4-11.4-2.6-16.8c-5.5-24.2-18.1-40.9-36.4-48.4l-7-2.9l-3.5-1.4l2.4,3l4.7,6
		c0.1,0.2,13.5,17.4,19.3,44.2c4.7,21.6,5.4,54.6-16.2,91.9c5.2-25.9,11.3-75.7-13.2-94.2l-8.8-6.6l-4.4-3.3l3,4.7l5.9,9.3
		c0.2,0.3,16.6,26.9,3.6,64.7c1.1-14.3-0.5-31.6-11-44.2l-6.4-7.6l-3.2-3.8l1.5,4.8l2.9,9.5l0,0c0.5,1.6,4.5,16.5,2.5,36.2
		c-1.5,14.1-6.6,34.2-22,53.9c7.8-15.9,14.2-35.7,9.2-51.5c-3-9.6-10-16.6-20.6-20.8l-0.7-0.3l-0.5,0.6c-0.8,1-1.6,2-2.5,3.1
		l-0.2,0.2l-1.3,1.5l2,0.1l0.1,0c9.3,3.5,15.4,9.3,17.9,17.4c8.1,25.6-19.6,65.9-20.8,67.6l-9,12.8l-4.5,6.4l6-5.1l12-10.2
		c30-25.5,38.8-55.1,40.9-75.4c0.6-5.9,0.8-11.8,0.5-17.6c4.4,20.3-2.5,42.7-2.8,43.8l-5.3,16.6l-2.7,8.3l4.5-7.5l8.9-14.9
		c15.8-26.4,16.9-49.3,15-64.3c7.3,32.5-6,80.5-6.2,81.1l-3.1,10.9l-1.5,5.5l3.3-4.6l6.6-9.2c32.2-44.6,32.1-85,26.4-111.1
		c-3.4-15.5-8.9-27.7-13.7-36.1c14.3,10.6,20.5,28.1,23.1,41.3c3.2,16,2.2,29.4,2.2,29.5l-1,13.1l-0.5,6.6l2.4-6.1l4.9-12.2
		c19.6-48.9,9.8-84.1-1.9-105c-5-9-10.7-16.1-15.6-21.3c22.2,14.2,34.8,41.2,34.9,41.5l6.4,14.1l3.2,7l-1.3-7.6l-2.6-15.2
		c-6.7-39.1-22.7-60.6-34.8-71.8c-7.2-6.6-13.8-10.5-18.7-12.8c4.3-1.6,8.7-2.5,13.1-2.5c10.6,0,17.7,4.7,18.4,5.3l7.5,5.3l3.7,2.7
		l-2.3-4l-4.6-8c-10.4-18.1-23-23.1-32.5-23.9c21.3-17.9,17.3-34.1,17.1-34.8l-1.2-4.4l-0.5-2c9.6-5,19.9-7.6,30.4-7.6
		c14.5,0,30.1,4.8,46.1,14.2c21.4,12.5,20,54.8,19.1,82.8l0,0.9c-0.1,4.6-0.3,8.9-0.3,12.6v5.3v2.6l1.7-2l3.5-3.9
		c0.9-1,22.9-26.3,20.4-85.5c-0.8-19.1-10.5-58.6-41.9-85.1c-19.4-16.4-43.3-24.6-71.2-24.6c-6.4,0-13.1,0.4-20,1.3
		c-6.5,0.8-13.1,2.4-19.5,4.6c1.3-5.9,2.6-11.6,3.8-16.6l0-0.1c5.4-22.8,6.6-41.3,6.6-41.4l1.2-19.8L415.2,39.5L415.2,39.5z
		 M68.4,302.8c-8.1-12.9-22.4-42-20.7-82.9c0.7-17.3,13.4-46.6,39.5-69.8c16.6-14.7,44.8-32.3,84.9-32.3c1.4,0,2.8,0,4.2,0.1
		c6.9,29,8.7,61.7,4.9,88.1c-8.2-8-21.1-17.2-37.8-18.7c-1.5-0.1-3-0.2-4.5-0.2c-17.2,0-34.5,8.7-51.3,25.9
		C67.4,233.7,68,275.3,68.4,302.8C68.4,302.8,68.4,302.8,68.4,302.8L68.4,302.8z M254.5,210.8c-2.9-0.1-5.6-1.5-7.4-3.8
		c-7.9-9.9-26.7-35.2-30.8-54.5c-2.2-10.1-9.2-20.3-16.6-31c26.6,8.5,46.7,31,59,48.7c10.9,15.8,18.5,31.5,22.3,40.3
		c-2.8-0.1-5.8-0.1-9.1-0.1C264,210.4,257.1,210.7,254.5,210.8L254.5,210.8z M401.5,134.3c7.2-2.8,14.5-4.7,21.8-5.6
		c6.5-0.8,13-1.3,19.1-1.3c26.4,0,49.1,7.8,67.4,23.2c29.8,25.2,39.1,62.6,39.8,80.7c1.5,37.3-7,60.6-13.5,72.7c0-0.2,0-0.4,0-0.6
		l0.1-2.2c0.9-29.4,2.4-73.8-22.1-88.1c-16.9-9.9-33.4-14.9-49.2-14.9c-12.8,0-24.9,3.2-36,9.6c-12.7,7.3-21.2,16.8-25.7,22.7
		C391.1,196.8,396.4,159.7,401.5,134.3L401.5,134.3z M317.3,212.9c8.9-14.2,26.2-38.9,49.8-58c-7.6,17.7-19.7,39.4-26.5,51.3
		c-2.3,4-6.6,6.5-11.2,6.5c-0.1,0-0.2,0-0.4,0l-0.1,0h0l0,0C328.4,212.7,323.4,212.9,317.3,212.9L317.3,212.9z M408.6,233.6
		c4.2-5.3,12.1-14.1,23.5-20.6c0.7-0.4,1.4-0.8,2.1-1.2l-0.9,1.5l-2.4,3.9C426,224.9,415.3,230.6,408.6,233.6L408.6,233.6z"/>
</g>
<g>
	<path d="M298.5,505.4c-1,0-2-0.1-3.1-0.3l-11.5-1.9c-4.9-0.8-9.4-3.6-12.3-7.7l-4.4-6.2l-0.8-1.1v0l-19.3-27.3
		c-0.4-0.5-0.8-1-1.2-1.7l0,0l-0.1-0.1l-1.2-1.9l-8.3-13c-2.2-3.5-3.4-7.5-3.4-11.6v-0.2c0-6,2.5-11.8,7-15.9
		c6.6-6,11.3-8.9,22.3-9.9c1.7-0.2,3.3-0.2,4.9-0.2c0-0.5,0-1,0-1.5c-0.1-7.7-0.2-16.8-0.4-26c-0.2-10.6-0.7-21.1-1.4-31.3
		c-1.1-10.6-4.9-20-11.2-27.3c-11.6-13.4-30.2-21.3-55.2-23.7l0-1c1.2,0,2.3-0.1,3.5-0.1c17,0,32.9,4.4,44.8,12.4
		c13.6,9.2,21.6,22.7,22.9,39.2c0.7,10.2,1,21.2,1.1,31.7c0.1,5.5,0.1,11.2,0,17c2.9-3,7.4-5.3,13.2-6.9c1.8-0.5,6.5-1.6,12.2-1.6
		c5.6,0,10.8,1.1,15.3,3.1c2.4,1.1,4.3,2.4,5.7,4.1c-0.1-22.4,1.7-43,5.4-61.3c6.1-27.9,36.2-37.8,60.2-37.8c1.5,0,2.9,0,4.4,0.1
		l0,1c-25.6,0.9-54.9,11.2-60.1,37.6c-2.3,11.5-3.6,24.1-4.4,40.7c-0.4,9.6-0.5,19.5-0.3,29.5c1.7-0.2,3.4-0.4,5.3-0.4
		c0.4,0,0.8,0,1.2,0c11.4,0,23,7.1,28.7,17.7c3.3,6.2,3.1,13.9-0.6,20.1c-3.4,5.8-7.3,11.5-11.5,16.8c-0.8,1-1.6,2.1-2.5,3.1
		l-0.2,0.3l-15.6,19.1L313,498.5C309.4,502.9,304.1,505.4,298.5,505.4z M275.6,492.6c2.1,3,5.4,5.1,9,5.7l11.5,1.9
		c0.7,0.1,1.5,0.2,2.3,0.2c4.2,0,8.1-1.8,10.7-5.1l16.5-20.1l0.1-0.1l3.1-3.8c-0.7,0.1-1.3,0.1-1.9,0.1c-0.4,0-0.8,0-1.2,0
		c-0.1,0-0.3,0-0.4,0c-8-0.1-16-3.3-22.5-9c-0.3-0.3-0.7-0.6-1-0.9c-1.1-1-2.3-1.7-3.7-2.1c-0.7-0.2-1.5-0.3-2.2-0.3
		c-0.4,0-0.9,0-1.3,0.1c-2.2,0.3-4.2,1.4-5.6,3.1c-0.5,0.5-0.9,1-1.3,1.4c-4.7,4.7-11.1,7.2-19,7.4c-0.3,0-0.6,0-0.9,0h-0.2
		c-0.1,0-0.2,0-0.4,0c-2.5,0-5.1-0.5-7.5-1.3l8.9,12.5v0L275.6,492.6z M329.1,408.9c-0.3,0-0.6,0-0.9,0c-2,0.1-4,0.3-5.9,0.5
		c-1.4,0.2-2.6,0.4-3.7,0.7c-13.6,3.2-20.1,12.4-20.1,27.9c0,5,0.5,11.5,4.2,16.9c0.9,1.4,2.1,2.6,3.4,3.8c0.1,0.1,0.3,0.2,0.4,0.3
		c5.3,4.5,11.8,7.1,18.2,7.4c0.4,0,0.7,0,1.1,0c0.2,0,0.5,0,0.7,0c0.9,0,1.8-0.1,2.7-0.2l0.1,0c2.7-0.4,5.2-1.8,7-4l1.1-1.3l2.1-2.5
		c0.2-0.3,0.5-0.6,0.7-0.8l0.4-0.5c4.6-5.7,8.8-11.7,12.4-18c2.8-4.7,3-10.6,0.5-15.2C348.6,415.1,338.7,408.9,329.1,408.9
		C329.1,408.9,329.1,408.9,329.1,408.9z M267.4,411.4c-1.5,0-3.2,0.1-4.8,0.2c-9.5,0.8-13.3,3-19.4,8.6c-3.4,3.2-5.4,7.6-5.4,12.2
		v0.2c0,3.1,0.9,6.2,2.6,8.9l9.5,14.9l1.1,1.6c3.9,5.1,9.8,8.2,16.1,8.3c0.1,0,0.2,0,0.3,0c0,0,0.2,0,0.2,0c0.4,0,0.7,0,1.1,0
		c6.5-0.2,11.6-2.2,15.3-5.9c0.7-0.7,1.3-1.5,1.9-2.2c0.8-1.2,1.6-2.4,2.2-3.8c2-4.4,2.9-9.8,2.8-16.2c-0.1-10.3-2.4-17.4-7.1-21.6
		c-3.2-2.9-7.6-4.6-13.3-5c-0.9-0.1-1.9-0.1-3-0.1H267.4z M272.1,406.6c6.3,0.6,11.3,2.7,15.2,6.2c2,1.8,3.7,4,5,6.6
		c0.4,0.7,1.1,1.1,1.9,1.1c0.7,0,1.3-0.4,1.7-1c4.4-7.1,11.6-11.9,21.3-14.2c0-0.1,0-0.1,0-0.2c-1.2-4.6-2.1-7.9-7.2-10.2
		c-3.8-1.8-8.3-2.6-13.2-2.6c-5.4,0-9.7,1.1-10.9,1.4c-6.5,1.8-10.9,4.6-12.7,8.1C272,403.7,271.9,405.4,272.1,406.6z"/>
	<path d="M383.1,296c1.5,0,2.9,0,4.4,0.1c-24.7,0.9-55.1,10.7-60.6,38c-2.6,13.4-3.8,27.1-4.4,40.7c-0.4,10-0.5,20-0.3,30
		c1.9-0.3,3.8-0.4,5.8-0.5c0.4,0,0.8,0,1.1,0c11.2,0,22.7,7,28.3,17.4c3.2,6,3,13.5-0.6,19.6c-3.4,5.8-7.3,11.4-11.4,16.8
		c-0.8,1-1.6,2.1-2.5,3.1l-0.2,0.2l-14.7,18l-0.9,1.1l-14.5,17.6c-3.5,4.3-8.8,6.7-14.2,6.7c-1,0-2-0.1-3-0.2l-11.5-1.9
		c-4.8-0.8-9.1-3.5-12-7.5l-4.4-6.2l-0.7-1v0l-19.4-27.4c-0.4-0.5-0.8-1.1-1.2-1.7l0,0c0,0,0,0-0.1-0.1l-1.2-1.9l-2.3-3.6l-6-9.4
		c-2.2-3.4-3.3-7.3-3.3-11.3v-0.2c0-5.9,2.5-11.6,6.8-15.6c6.5-6,11.2-8.8,22.1-9.7c1.8-0.2,3.4-0.2,5.1-0.2c0.1,0,0.2,0,0.3,0
		c0-0.6-0.1-1.2,0-2v-0.1c-0.1-8.7-0.2-17.3-0.4-26c-0.2-10.5-0.7-21-1.5-31.3c-1-10.1-4.7-19.9-11.3-27.6
		c-13.7-15.8-35.2-21.9-55.5-23.8c1.2,0,2.3-0.1,3.5-0.1c32,0,64.3,15.9,67.2,51.1c0.8,10.2,1,21.4,1.1,31.6
		c0.1,6.1,0.1,12.2,0,18.3c2.8-3.4,7.5-6,13.8-7.7c1.9-0.5,6.5-1.6,12.1-1.6c4.6,0,10,0.7,15.1,3.1c3.1,1.4,5.1,3.2,6.4,5.1
		c-0.2-21.7,1.4-43,5.3-62.7C329.4,306.3,358,296,383.1,296 M294.1,421c0.8,0,1.6-0.4,2.1-1.2c4.4-7,11.7-11.9,21.5-14.1
		c-0.1-0.2-0.1-0.4-0.2-0.6c-1.2-4.5-2.2-8.1-7.5-10.5c-4.5-2.1-9.3-2.7-13.4-2.7c-5.4,0-9.7,1.1-11,1.4c-6.6,1.8-11.2,4.7-13,8.3
		c-1.1,2.2-1.1,4.2-0.9,5.5c6.4,0.6,11.5,2.6,15.3,6.1c1.9,1.8,3.6,3.9,4.8,6.4C292.2,420.5,293.1,421,294.1,421 M325.7,467
		c0.3,0,0.5,0,0.8,0c0.9,0,1.8-0.1,2.7-0.2l0.1,0c2.8-0.4,5.4-1.9,7.3-4.1l1.1-1.4l2-2.5l0,0v0c0.4-0.4,0.7-0.9,1.1-1.3
		c4.6-5.7,8.8-11.7,12.5-18c2.9-4.9,3.1-10.9,0.5-15.7c-4.9-9.1-15-15.3-24.7-15.3c-0.3,0-0.7,0-1,0c-2.1,0.1-4,0.3-5.9,0.6
		c-1.3,0.2-2.6,0.4-3.8,0.7c-14.2,3.4-20.5,13.2-20.5,28.4c0,6.1,0.8,12.1,4.3,17.2c0.9,1.4,2.1,2.7,3.5,3.9
		c0.1,0.1,0.3,0.2,0.4,0.4c5.4,4.5,12,7.2,18.5,7.5C325,466.9,325.3,467,325.7,467 M267.5,466.7h0.1c0.4,0,0.8,0,1.1,0
		c6.6-0.2,11.9-2.2,15.7-6c0.7-0.7,1.3-1.5,1.9-2.3c0.9-1.2,1.6-2.5,2.2-3.9c2-4.4,3-9.9,2.9-16.4c-0.1-10.5-2.5-17.7-7.2-21.9
		c-3.3-3-7.8-4.7-13.6-5.1c-1-0.1-2-0.1-3-0.1h-0.2c-1.5,0-3.1,0.1-4.9,0.2c-9.6,0.8-13.5,3-19.7,8.7c-3.5,3.2-5.5,7.8-5.5,12.6v0.2
		c0,3.2,1,6.4,2.7,9.1l6.9,10.7l2.4,3.8l0.2,0.3l1.1,1.6c4,5.2,10,8.4,16.5,8.5C267.3,466.7,267.4,466.7,267.5,466.7 M267.5,470.7
		c-0.1,0-0.2,0-0.3,0c-3.1-0.1-6.1-0.7-8.9-1.8l8.7,12.4l1,1.3v0l7.3,10.3c2.2,3.1,5.6,5.2,9.3,5.9l11.5,1.9
		c0.8,0.1,1.6,0.2,2.3,0.2c4.3,0,8.4-1.9,11.1-5.2l16.6-20.2v0l1.2-1.4l2.7-3.3c-0.1,0-0.2,0-0.2,0c-0.9,0.1-1.9,0.2-2.9,0.2
		c-0.4,0-0.8,0-1.2,0c-0.1,0-0.3,0-0.4,0c-7.9-0.1-15.8-3.2-22.2-8.9c-0.3-0.3-0.7-0.6-1-0.9c-1.1-1.1-2.5-1.8-3.9-2.2
		c-0.8-0.2-1.5-0.3-2.3-0.3c-0.5,0-0.9,0-1.4,0.1c-2.2,0.3-4.3,1.4-5.9,3.2c-0.4,0.5-0.8,1-1.3,1.4c-4.6,4.6-10.9,7.1-18.7,7.2
		c-0.3,0-0.6,0-0.9,0H267.5 M383.1,295c-13.9,0-27.2,3.1-37.5,8.7c-12.4,6.7-20.4,16.9-23.1,29.5c-3.6,18-5.5,38.2-5.4,60.2
		c-1.4-1.3-3-2.4-5-3.3c-4.6-2.1-9.8-3.2-15.5-3.2c-5.6,0-10.1,1-12.3,1.6c-5.3,1.5-9.5,3.5-12.5,6.2c0-5.5,0-10.8-0.1-15.9
		c-0.2-10.4-0.4-21.5-1.1-31.7c-1.4-16.6-9.4-30.3-23.1-39.6c-12-8.1-28-12.5-45.1-12.5c-1.2,0-2.4,0-3.5,0.1l-0.1,2
		c24.9,2.3,43.4,10.2,54.9,23.5c6.2,7.2,10,16.6,11.1,27.1c0.7,10.1,1.2,20.6,1.4,31.2c0.2,9.2,0.3,18.3,0.4,26v0c0,0.3,0,0.7,0,1
		c-1.5,0-2.9,0.1-4.4,0.2c-11.1,1-16,3.9-22.6,10c-4.6,4.2-7.2,10.1-7.1,16.3v0.2c0,4.2,1.2,8.3,3.5,11.8l6,9.4l2.3,3.6l1.2,1.9
		l0,0.1l0.1,0.1c0.4,0.6,0.8,1.2,1.2,1.7l19.2,27.1v0l0.2,0.3l0.7,1l4.4,6.2c3,4.2,7.5,7.1,12.6,7.9l11.5,1.9
		c1.1,0.2,2.2,0.3,3.2,0.3c5.8,0,11.3-2.6,15-7.1l14.5-17.6l0.9-1.1l14.7-18l0.2-0.2c0.9-1.1,1.7-2.1,2.5-3.1
		c4.2-5.4,8.1-11,11.5-16.9c3.8-6.4,4-14.3,0.6-20.6c-5.8-10.7-17.5-17.9-29.1-17.9c-0.4,0-0.8,0-1.2,0c-1.7,0.1-3.3,0.2-4.8,0.4
		c-0.2-9.7,0-19.4,0.3-28.9c0.8-16.6,2.1-29.1,4.4-40.6c5.2-26.1,34.2-36.4,59.6-37.2l0-2C386.1,295,384.6,295,383.1,295L383.1,295z
		 M272.5,406.2c0-1.1,0.1-2.6,0.9-4.1c1.8-3.4,6-6.1,12.4-7.8c1.2-0.3,5.4-1.4,10.7-1.4c4.9,0,9.3,0.9,13,2.6
		c4.7,2.2,5.7,5.3,6.8,9.5c-9.5,2.4-16.7,7.3-21.1,14.3c-0.3,0.5-0.8,0.7-1.3,0.7c-0.6,0-1.1-0.3-1.4-0.9c-1.3-2.6-3-4.9-5.1-6.7
		C283.7,408.9,278.8,406.9,272.5,406.2L272.5,406.2z M325.7,466c-0.4,0-0.7,0-1,0c-6.4-0.3-12.7-2.9-17.9-7.2
		c-0.2-0.1-0.3-0.2-0.4-0.3c-1.3-1.1-2.4-2.4-3.3-3.7c-3.6-5.3-4.1-11.6-4.1-16.6c0-15.3,6.5-24.2,19.8-27.4
		c1.1-0.3,2.4-0.5,3.7-0.7c1.9-0.3,3.8-0.5,5.8-0.5c0.3,0,0.6,0,0.9,0c0,0,0,0,0.1,0c9.3,0,19.1,6.1,23.8,14.8
		c2.4,4.5,2.2,10.1-0.5,14.7c-3.7,6.2-7.8,12.2-12.4,17.9l-0.4,0.5c-0.2,0.3-0.4,0.6-0.7,0.8l-0.2,0.3v0l-1.8,2.2l-1.1,1.3
		c-1.7,2.1-4.1,3.4-6.7,3.8l-0.1,0c-0.8,0.1-1.7,0.2-2.6,0.2C326.2,465.9,325.9,466,325.7,466L325.7,466z M250.4,456l-0.2-0.3
		l-2.5-3.8l-6.9-10.7c-1.7-2.6-2.5-5.6-2.5-8.6v-0.2c0-4.5,1.9-8.8,5.2-11.9c6-5.5,9.8-7.6,19.1-8.4c1.6-0.1,3.2-0.2,4.8-0.2h0.2
		c1,0,2,0,2.9,0.1c5.6,0.4,9.9,2,13,4.9c4.5,4.1,6.8,11,6.9,21.2c0.1,6.3-0.9,11.7-2.8,16c-0.6,1.3-1.3,2.6-2.1,3.7
		c-0.5,0.8-1.1,1.5-1.8,2.2c-3.6,3.6-8.6,5.6-15,5.7c-0.4,0-0.7,0-1.1,0h-0.1c0,0,0,0-0.1,0c0,0-0.1,0-0.1,0l0,0l0,0
		c-6.1-0.1-11.9-3.1-15.7-8.1L250.4,456L250.4,456z M267.5,471.7h0.2c0.3,0,0.7,0,1,0c8.1-0.2,14.6-2.7,19.3-7.5
		c0.4-0.4,0.9-0.9,1.3-1.5c1.3-1.6,3.2-2.6,5.2-2.9c0.4-0.1,0.8-0.1,1.2-0.1c0.7,0,1.4,0.1,2.1,0.3c1.3,0.3,2.5,1,3.5,1.9
		c0.3,0.3,0.7,0.6,1,0.9c6.6,5.8,14.7,9,22.9,9.1c0.1,0,0.3,0,0.4,0c0.4,0,0.8,0,1.3,0c0.2,0,0.5,0,0.7,0l-1.2,1.4l-1.2,1.4
		l-0.2,0.3v0L308.8,495c-2.5,3.1-6.3,4.9-10.3,4.9c-0.7,0-1.5-0.1-2.2-0.2l-11.5-1.9c-3.5-0.6-6.6-2.6-8.7-5.5l-7.1-10.1v0l-0.2-0.3
		l-1-1.3l-7-9.8c2,0.6,4.1,0.9,6.3,0.9C267.2,471.7,267.3,471.7,267.5,471.7L267.5,471.7z"/>
</g>
<g>
	<path d="M240.8,360.6c-2.5,0-5.1-0.5-7.9-1.4c-15.8-5.2-21.9-12.5-28.6-33.8c-0.1-0.3-1.2-1.4-2.7-1.6l-1.4-0.2l1.2-0.7
		c1.6-0.9,5.9-3.1,13.1-3.1l0.3,0c8.4,0,22.5,2.9,42,17c1.4,1,2.1,2.5,2.1,4v0.2c0,0.6,0.1,1.2,0.3,1.7c0.2,0.7,0.7,1.3,1.2,2
		c0.9,1.3,1.9,2.7,1.7,4.6c-0.3,3.2-2.1,3.8-3.5,3.8c0,0-0.4,0-0.5,0c-1.7,0-3.3,0.7-4.5,1.9C251.4,357.6,247.2,360.6,240.8,360.6z
		 M228,334.7c-0.3,0-0.6,0.1-0.8,0.4c-0.1,0.2-0.2,0.4-0.2,0.6c0,0.1,0,0.2,0,0.3c3.9,14.7,10.6,17.7,15.5,17.7c0.5,0,1,0,1.5-0.1
		c5.4-0.7,10.2-5.2,10.2-7.6c0-2.3-2.8-5.4-7.7-8.8c-2.4-1.6-5.3-2.5-8.2-2.5H228z M210.5,326c-0.1,0-0.3,0.1-0.3,0.2
		c-0.1,0.1-0.1,0.3-0.1,0.4c5.6,16.9,12.9,22.8,15.7,24.5c0.1,0,0.1,0,0.1,0c0.1,0,0.1,0,0.2-0.1c0.1-0.1,0.1-0.2,0-0.3
		c-4.2-7.6-9-17-8-18.8c1-1.8,5.3-2,7.7-2l0.5,0C222.3,327.6,213.3,326.4,210.5,326L210.5,326z"/>
	<path d="M214.9,320.3c8.4,0,22.4,3,41.8,16.9c1.2,0.9,1.9,2.2,1.9,3.6v0.2c0,0.6,0.1,1.3,0.3,1.9c0.2,0.8,0.7,1.4,1.2,2.2
		c0.9,1.2,1.8,2.5,1.6,4.3c-0.2,2.2-1.2,3.4-3,3.4c-0.1,0-0.1,0-0.2,0c-0.1,0-0.2,0-0.3,0c-1.8,0-3.6,0.8-4.8,2.1
		c-2.1,2.2-6.1,5.3-12.5,5.3c-2.3,0-4.8-0.4-7.7-1.3c-15.6-5.1-21.6-12.3-28.3-33.4c-0.2-0.6-1.5-1.7-3.1-1.9
		c1.6-0.9,5.8-3,12.9-3.1C214.7,320.3,214.8,320.3,214.9,320.3 M226,351.7c0.2,0,0.4-0.1,0.5-0.2c0.2-0.2,0.3-0.6,0.1-0.9
		c-5.7-10.3-8.7-17.1-8-18.3c0.9-1.6,5.3-1.8,7.3-1.8c0.2,0,0.4,0,0.5,0c0.2,0,0.4-0.1,0.5-0.4s0-0.4-0.2-0.5
		c-4.2-2.4-13.3-3.7-16-4c0,0-0.1,0-0.1,0c-0.3,0-0.5,0.1-0.7,0.3c-0.2,0.3-0.3,0.6-0.2,0.9c5.7,17.1,13.1,23,16,24.8
		C225.7,351.6,225.8,351.7,226,351.7 M242.4,354.3c0.6,0,1.1,0,1.6-0.1c5.8-0.8,10.6-5.5,10.6-8.1c0-3.1-4.3-6.8-8-9.3
		c-2.5-1.7-5.4-2.6-8.5-2.6H228c-0.5,0-0.9,0.2-1.2,0.6c-0.2,0.3-0.3,0.6-0.3,0.9c0,0.1,0,0.3,0.1,0.4
		C230.6,351.4,237.7,354.3,242.4,354.3 M214.9,319.3l-0.3,0c-7.3,0-11.8,2.3-13.4,3.2l-2.5,1.5l2.9,0.4c1.2,0.2,2.2,1,2.3,1.3
		c6.7,21.4,12.9,28.8,28.9,34c2.8,0.9,5.5,1.4,8,1.4c6.6,0,10.8-3.1,13.2-5.6c1.1-1.1,2.5-1.8,4.1-1.8c0.1,0,0.2,0,0.2,0
		c0.1,0,0.2,0,0.2,0c1.3,0,3.6-0.6,4-4.3c0.2-2.1-0.8-3.6-1.7-5c-0.5-0.7-0.9-1.3-1.1-1.9c-0.1-0.5-0.2-1-0.2-1.5v-0.2
		c0-1.7-0.8-3.4-2.3-4.4C237.6,322.3,223.4,319.3,214.9,319.3L214.9,319.3z M225.3,350.1c-3.3-2.3-9.6-8.5-14.7-23.6
		c4.5,0.6,10,1.6,13.5,3c-2.7,0.1-5.5,0.7-6.4,2.2C217.4,332.4,216.4,334.1,225.3,350.1L225.3,350.1z M242.4,353.3
		c-4.7,0-11.1-3-15-17.4c0,0,0-0.1,0-0.1c0-0.1,0-0.2,0.1-0.3c0.1-0.1,0.2-0.2,0.4-0.2h10.2c2.8,0,5.6,0.8,7.9,2.4
		c4.8,3.3,7.5,6.3,7.5,8.4c0,2-4.4,6.4-9.7,7.1C243.4,353.2,242.9,353.3,242.4,353.3L242.4,353.3z"/>
</g>
<path d="M243.4,345c-0.9,3.5-2.7,6.4-5.2,8.6c-1.2-3.1-1.5-6.6-0.6-10s2.7-6.4,5.2-8.6C244,338,244.3,341.5,243.4,345z"/>
<g>
	<path d="M357.1,354.7c-2.4-2.6-3.9-5.9-4.4-9.4c-0.5-3.5,0.1-7.1,1.7-10.2l0.3-0.6l0.5,0.5c2.4,2.6,3.9,5.9,4.4,9.4
		c0.5,3.5-0.1,7.1-1.7,10.2l-0.3,0.6L357.1,354.7z"/>
	<path d="M354.9,335.4c2.2,2.4,3.8,5.6,4.3,9.1c0.5,3.5-0.2,7-1.7,9.9c-2.2-2.5-3.8-5.6-4.3-9.1
		C352.7,341.8,353.4,338.3,354.9,335.4 M354.7,333.6l-0.7,1.3c-1.6,3.3-2.3,6.9-1.8,10.5c0.5,3.6,2.1,7,4.5,9.7l1,1.1l0.7-1.3
		c1.6-3.3,2.3-6.9,1.8-10.5c-0.5-3.6-2.1-7-4.5-9.7L354.7,333.6L354.7,333.6z"/>
</g>
<g>
	<g>
		<path d="M356.8,361.5c-1.6,0-3.1-0.2-4.6-0.5c-2.8-0.6-5.5-1.6-8-2.6c-0.9-0.4-1.8-0.7-2.7-1c-2.4-0.9-5.5-1.9-8.7-1.9
			c-0.2,0-0.8,0-0.8,0c-1.7,0-2.1-0.7-2.5-2.2c-0.3-1.4-0.2-3.1,0.5-4.6c0.8-2.1,2.3-3.9,3.8-5.6l5.6-6.5c2-2.3,4.1-4.8,6.7-6.7
			c3.7-2.7,8.2-4,12.5-5.3c5.5-1.6,11.2-3.3,17.1-3.6c0.5,0,1,0,1.4,0c4.3,0,10.4,0.8,15.3,4.8l0.6,0.5l-0.6,0.4
			c-1.8,1.1-3.4,2.9-4.6,5.5c-0.7,1.5-1.2,3.1-1.7,4.6c-0.3,0.8-0.6,1.7-0.9,2.5c-2.6,7.1-7,13.2-12.6,17.1
			C368,359.7,362.3,361.5,356.8,361.5C356.8,361.5,356.8,361.5,356.8,361.5z M362.6,334.9c-8.2,0-15.2,3-20.8,9
			c-0.7,0.8-0.9,1.9-0.6,2.9l0.9,2.5c0.4,1,1.3,1.7,2.3,1.8c3.3,0.4,7.6,1.1,9.2,2.7c0.5,0.5,1.4,1.1,2.8,1.1
			c3.1,0,8.7-3.1,17.4-17.9c0-0.1,0-0.1,0-0.2c0,0,0-0.1-0.1-0.1C372,336.2,367.8,334.9,362.6,334.9z M363.9,327.6
			c6.7,1.4,15,3.5,16.1,5.4c0.8,1.4-2.1,5.7-7.1,12.5l-0.4,0.6c-1.9,2.6-3.4,5.1-4.4,6.8c-0.1,0.2-0.1,0.4,0,0.5
			c0.1,0.2,0.3,0.3,0.4,0.3c0.1,0,0.1,0,0.2-0.1c6-2.9,13.2-19.3,15.3-24.3c0.2-0.4,0.1-0.8,0-1.2c-0.2-0.4-0.5-0.6-1-0.7
			c-2.2-0.5-4.9-0.8-7.9-0.8C370.9,326.7,366.7,327.2,363.9,327.6z M336.5,349c-0.2,0.3-0.4,0.6-0.3,0.7c0,0.1,0.2,0.2,0.8,0.2
			L336.5,349z"/>
		<path d="M377.1,321.5c5.4,0,10.8,1.3,15,4.7c-2.2,1.3-3.7,3.5-4.8,5.8s-1.7,4.8-2.6,7.1c-2.4,6.6-6.6,12.8-12.4,16.9
			c-4.5,3.2-10,5.1-15.6,5.1c-1.5,0-3-0.1-4.5-0.4c-3.7-0.7-7.1-2.4-10.6-3.7c-2.8-1-5.8-1.9-8.8-1.9c-0.2,0-0.4,0-0.5,0
			c-0.1,0-0.2,0-0.3,0c-1.3,0-1.6-0.4-2-1.9c-0.3-1.4-0.1-3,0.4-4.3c0.8-2.1,2.3-3.8,3.7-5.5c1.9-2.2,3.7-4.3,5.6-6.5
			c2-2.4,4.1-4.8,6.6-6.6c3.6-2.6,8-3.9,12.3-5.2c5.6-1.7,11.2-3.3,17-3.6C376.2,321.5,376.7,321.5,377.1,321.5 M368.5,354.2
			c0.1,0,0.3,0,0.4-0.1c6.1-2.9,13.2-18.9,15.6-24.6c0.5-1.1-0.2-2.3-1.3-2.6c-2.5-0.6-5.3-0.8-8-0.8c-4.6,0-9,0.6-11.5,1
			c-0.5,0.1-0.5,0.7,0,0.8c4.6,1,14.9,3.3,16,5.2c0.8,1.3-3.8,7.5-7.5,12.6c-1.9,2.6-3.5,5.2-4.5,6.9
			C367.2,353.4,367.8,354.2,368.5,354.2 M356.3,355.4c3.4,0,9.2-3.5,17.8-18.2c0.2-0.4,0-0.8-0.4-1c-1.6-0.6-5.9-1.8-11.1-1.8
			c-6.4,0-14.4,1.9-21.2,9.2c-0.8,0.9-1.1,2.2-0.7,3.4l0.9,2.5c0.4,1.2,1.5,2,2.7,2.2c2.7,0.3,7.3,1,8.9,2.6
			C353.8,354.8,354.8,355.4,356.3,355.4 M337.1,350.4c0.4,0,0.6,0,0.6,0l-1.2-2.3c0,0-1.3,1.2-0.9,1.9
			C335.9,350.4,336.6,350.4,337.1,350.4 M377.1,320.5c-0.5,0-1,0-1.5,0c-6,0.3-11.7,2-17.3,3.6c-4.3,1.3-8.8,2.6-12.6,5.4
			c-2.7,1.9-4.9,4.5-6.8,6.8l-2.8,3.3l-2.8,3.3c-1.5,1.7-3,3.5-3.9,5.7c-0.6,1.6-0.8,3.4-0.5,4.9c0.4,1.7,1,2.6,2.9,2.6
			c0.1,0,0.2,0,0.3,0c0.2,0,0.3,0,0.5,0c3.1,0,6.2,1,8.5,1.8c0.9,0.3,1.8,0.7,2.7,1c2.6,1,5.3,2.1,8.1,2.7c1.5,0.3,3.1,0.5,4.7,0.5
			c5.6,0,11.3-1.9,16.1-5.3c5.6-4,10.1-10.1,12.7-17.3c0.3-0.8,0.6-1.7,0.9-2.5c0.5-1.6,1-3.1,1.7-4.5c1.2-2.5,2.6-4.3,4.4-5.3
			l1.2-0.7l-1.1-0.9C387.8,321.3,381.5,320.5,377.1,320.5L377.1,320.5z M366.9,327.7c2.4-0.3,5.3-0.5,8.2-0.5c3,0,5.6,0.3,7.8,0.8
			c0.3,0.1,0.5,0.2,0.6,0.5c0.1,0.1,0.2,0.4,0,0.7c-2.1,4.9-9.2,21.2-15,24c1-1.7,2.5-4.3,4.4-6.8l0.4-0.6c6.1-8.4,8-11.5,7.1-13.1
			C380.1,332.1,379.2,330.5,366.9,327.7L366.9,327.7z M356.3,354.4c-1.2,0-2-0.5-2.4-1c-1.7-1.7-6.1-2.5-9.5-2.8
			c-0.9-0.1-1.6-0.7-1.9-1.5l-0.9-2.5c-0.3-0.8-0.1-1.7,0.5-2.3c5.5-5.9,12.4-8.9,20.5-8.9c4.8,0,8.6,1.1,10.4,1.7
			C364.1,352.1,358.7,354.4,356.3,354.4L356.3,354.4z"/>
	</g>
</g>
<path class="st1" d="M349.5,335.2l2.6,21.6l-0.5-24.3l3.1,24.9l-1.5-24.9l3.4,24.1l-0.6-25.3l3.7,25.5l-1.7-25.5l4.3,25.1l-2.4-24.7
	l4.5,23.1l-2.2-23.6l4.3,20.4l-2.5-20.4l3.5,19.2l-0.6-19.2c0,0,2,0.4,2,1c0,0.6-0.6,16.6-0.6,16.6l1.7-16.6l-0.7,14.5l2.1-13.8v9.6
	"/>
<g>
	<g>
		<path d="M194.2,279.6c6.2-6.1,9.4-15,9.3-26.7c0.2-7.3,0.2-13.8-0.1-19.7c-0.3-3.5-0.5-7.1-0.7-10.6c-0.4-6.3-0.7-12.7-1.4-19
			c-1.4-13.6-5.3-27-8.8-38.2c-0.7-2.1-1.4-4.4-2.2-6.7c-3.2-9.9-7.2-22.2-9.4-31.3l1-0.3c2.3,6.6,4.8,13.2,7.2,19.5
			c2.2,5.8,4.5,11.7,6.6,17.7c5.3,14.8,8.3,27.1,9.6,38.8c0.7,6.5,1,13,1.3,19.3l0,0.6c0.7,10.5,0.6,20.6-0.2,29.9
			c-0.3,6.9-2.2,19.8-11.5,27.3L194.2,279.6z"/>
		<path d="M181.4,127.3c4.3,12.5,9.4,24.7,13.8,37.2c4.5,12.5,8.1,25.5,9.6,38.7c0.7,6.6,1,13.3,1.3,19.9c0.6,9.9,0.7,19.9-0.2,29.9
			c-0.4,9.9-3.4,20.6-11.3,26.9c7.2-7,9.5-17.2,9.5-27c0.2-6.6,0.2-13.2-0.1-19.7c-0.7-9.8-1-19.8-2.1-29.6
			c-1.4-13-4.9-25.7-8.8-38.3C189.4,154.2,184,138.4,181.4,127.3 M182.3,127l-1.9,0.6c2.2,9.1,6.2,21.4,9.4,31.3
			c0.8,2.4,1.5,4.6,2.2,6.7c3.5,11.2,7.4,24.5,8.8,38.1c0.7,6.2,1.1,12.7,1.4,19c0.2,3.5,0.4,7.1,0.7,10.6
			c0.3,5.9,0.3,12.3,0.1,19.6c0.1,11.5-3,20.4-9.2,26.3l1.3,1.5c9.5-7.7,11.4-20.6,11.7-27.7c0.8-9.3,0.9-19.4,0.2-30l0-0.5
			c-0.3-6.3-0.6-12.9-1.3-19.4c-1.3-11.8-4.4-24.1-9.6-38.9c-2.1-5.9-4.4-11.9-6.6-17.7C187.1,140.1,184.6,133.5,182.3,127
			L182.3,127z"/>
	</g>
</g>
<g>
	<g>
		<path d="M381.7,267.4c-14.6-34-13.1-74.6,4.3-114.3c4.6-11,10.4-22.3,17.7-34.7l0.9,0.5c-5.2,11.1-10.7,23-15.5,35.5
			c-15.9,40.3-18,77.1-6.5,112.7L381.7,267.4z"/>
		<path d="M404.1,118.7c-5.5,11.7-10.9,23.5-15.5,35.5c-14.7,37.1-19,74.6-6.5,113c-15.9-36.9-11.5-77.8,4.3-113.9
			C391.5,141.4,397.6,129.9,404.1,118.7 M403.3,118.2c-7.3,12.4-13.1,23.7-17.7,34.8c-17.5,39.9-19,80.6-4.3,114.7l1.9-0.7
			c-11.5-35.5-9.4-72.2,6.5-112.4c4.8-12.4,10.3-24.4,15.5-35.5L403.3,118.2L403.3,118.2z"/>
	</g>
</g>
<circle class="st2" cx="528.1" cy="340.4" r="21.8"/>
<circle class="st2" cx="79.4" cy="337.9" r="21.8"/>
<g class="st0">
	<circle class="st3" cx="285.7" cy="243.5" r="21.8"/>
	<path class="st3" d="M357.1,159.8c0,0-10.6-118.5-32-118.5s-38.5,182-38.5,182S274.4,37.9,252.9,37.9s-30.2,92.4-30.2,92.4"/>
	<path class="st3" d="M245.5,41.8c0,0,10.6-13.6,45.1-12.6s41.3,16.4,41.3,16.4"/>
</g>
<g>
	<path class="st4" d="M544.1,331.8c3.6,7.6,6.3,15.7,6.7,24.1c0.5,13.8-5.6,26.9-11.6,39.4c-1.1-14-5.7-27.4-7.7-41.2
		c-1.2-8.2-1.4-16.5-0.7-24.7c0.3-4.2,0.9-8.4,1.8-12.5c0.2-1.2,0.3-3.8,2.1-3c1.2,0.5,2.3,4,2.9,5.1
		C539.8,323.2,542.1,327.5,544.1,331.8z"/>
	<path class="st4" d="M513.2,313.1c-6.5-0.5-13.3-0.8-19.3,1.9c-4.9,2.2-10,5.5-12.9,10.1c-2.9,4.5-4.3,9.6-5.6,15.3
		c4.4-8.7,13.5-14.1,22.9-16.8c5.7-1.7,11.7-2.5,17.5-4c2.7-0.7,5.3-1.5,7.9-2.5c2-0.8,5.5-2,6.7-3.9
		C524.6,313.7,519.1,313.5,513.2,313.1z"/>
	<path class="st4" d="M480.4,400.8c0,0,14.4-7,27.1-25.4c12.4-18,23-38.2,26.9-60c0.4-2.1-0.3-3.6-2.6-2.1c-2,1.3-3.8,0.7-5.4,2.5
		c-3.5,4-4,4.3-7.3,8.6c-6.5,8.4-15.6,24.6-19.3,34.6C491.7,381.2,480.4,400.8,480.4,400.8z"/>
</g>
<g>
	<path class="st4" d="M53.2,318.7c-7,4.6-13.7,10-18.5,16.9c-7.8,11.4-9.5,25.8-11.1,39.5c8.3-11.3,19.4-20.2,28.4-30.8
		c5.3-6.3,10-13.2,13.8-20.6c1.9-3.7,3.6-7.6,5.1-11.5c0.4-1.1,1.8-3.4-0.2-3.6c-1.2-0.2-4.1,2.2-5.2,2.8
		C61.4,313.7,57.2,316.1,53.2,318.7z"/>
	<path class="st4" d="M88.6,320c5.8,3,11.7,6.4,15.3,11.8c3,4.5,5.6,10,5.6,15.4c0,5.4-1.4,10.4-3.4,15.9c0.9-9.7-4-19.1-10.4-26.4
		c-4-4.5-8.5-8.3-12.7-12.6c-1.9-2-3.7-4.1-5.3-6.3c-1.3-1.8-3.6-4.6-3.6-6.9C78.7,314.4,83.4,317.2,88.6,320z"/>
	<path class="st4" d="M71.9,401.5c-0.3,1.2-2.1,12.5-2.1,12.5s-8.4-15.8-9.4-38.2c-1-21.8,0.8-44.6,9-65.1c0.8-2,2.1-2.9,3.3-0.4
		c1,2.2,1,5.6,1.4,8c0.8,5.3,1.5,10.6,2,16c1,10.6,1.4,21.3,0.9,31.9C76.4,378,74.8,389.9,71.9,401.5z"/>
</g>
<g>
	<path d="M294.3,305.9L294.3,305.9c-10.4-20.3-27.2-36.6-47.9-46.3l-2.7-1.3h35v-47.7l31.3,3v44.7h35l-3.3,1.6
		c-20,9.5-36.4,25.2-46.7,44.8L294.3,305.9z"/>
</g>
</svg>
